<?xml version="1.0" encoding="UTF-8"?>
<svg version="1.1" viewBox="0 0 2000 2000" width="500" height="500" xmlns="http://www.w3.org/2000/svg">
<path transform="translate(1366,398)" d="m0 0h8l9 2 6 4 6 8 5 12 5 19 4 25 2 26v28l-2 29-4 33-5 28-7 31-9 32-7 20-7 17 1 7 11 23 12 36 5 17 5 27 2 18v57l-3 24v13l2 10-1 2-4 2-12 27-9 17-8 14-1 5 14 7 7 2 8-8 9-12 10-13 13-19 14-20 11-18 12-19 14-24 8-11 6-4 8-1 11 4 13 10 13 11 16 12 10 9 5 7v9l-8 16-32 48-10 14-12 17-10 13-11 13-11 14-13 15-9 11-10 10-7 8-15 16-7 8h-2l-1 3-8 7-7 7-8 7-10 9-11 9-7 7h-2l3 6 13 14 11 14 13 18 9 15 12 23 8 21 5 21 1 10v9l-2 17-5 15-10 21-7 12 2 2 51 22 10 6 5 7 1 4v9l-4 11-8 12-17 25-10 13-7 6-7 3-18-4-30-8-39-6-8-3-5-5-7-10-14-26-18 1-13 1h-18l-25-2-26-4-8-1-16 10-24 13-28 14-26 10-25 8-24 6-24 4-21 2h-37l-29-3-28-6-25-7-35-12-34-16-21-12-13-9-2-1-11 1-21 4-14 2-13 1h-18l-29-2-2 5-10 17-10 15-6 5-15 3-27 4-44 11h-11l-8-6-10-12-24-34-6-10-1-3v-12l4-9 11-7 21-10 14-6 12-5 2-1-8-11-7-11-6-13-4-13-2-10v-27l5-23 7-20 10-21 13-22 12-17 16-20 11-13 11-12 22-22 8-7 13-11 13-10 4-3-1-5-3-9v-15l5-17-5-2-14-9-17-12-14-12-9-8-1-2-9 3-36 18h-5l-5-9 2-5 10-8 15-9 7-4-16-24-12-24-3-9-7 4-9 8-12 9-13 10-11 10-8 7-20 18-10 6-6 1-10-5-9-9-6-9-1-7 6-9 4-5 8-7 7-7 16-14 1-4-63-5-9-3-4-5-1-3v-16l4-12 7-8h16l38 4 12 2h7l10-7 12-11 8-8 8-7 16-15 7-6h2l1-4 2-29 3-23 6-28 11-36-1-5-13-29-10-27-9-29-8-32-5-28-4-29-1-12v-52l3-25 5-24 6-20 7-13 7-6 6-2h20l24 3 36 8 32 10 28 11 35 16 20 10 21 12 20 12 11 8 4 1 16-8 19-8 27-9 19-5 39-7 19-2h45l28 3 28 5 20 6 18 6 25 11 6 2 36-22 16-9 17-9 31-14 31-12 33-11 29-7 25-4zm-19 625-14 13-14 11-13 9-21 13-8 5 2 4 2 7 1 11-2 13-1 6 5 5 5 2 5-1 11-8 10-9 11-9 20-20 7-8 7-7 7-8 8-9 2-4-14-9-13-7z" fill="#040203"/>
<path transform="translate(1366,398)" d="m0 0h8l9 2 6 4 6 8 5 12 5 19 4 25 2 26v28l-2 29-4 33-5 28-7 31-9 32-7 20-7 17 1 7 11 23 12 36 5 17 5 27 2 18v57l-3 24-1 14-9-1-26-8-17-3-19-2v-2l16-1v-23l-3-21-6-22-5-16-8-18-11-19-12-17-6-8-6-7v-2h-2v-2h-2l-7-8-8-7-17-14-21-14-13-8-18-10-8-4-24-11-33-12-26-7-31-6-27-4-20-2-17-1h-47l-25 2-36 6-19 4-23 6-19 6-28 10-33 16-23 12-10 7-13 9-16 12-13 12-9 9-7 8-11 12-7 10-12 18-10 19-6 16-5 17-3 17-2 20-1 14-1 5h9l-2 2-24 4-21 6-11 4-1 4 1 2 7 1 28-3 20-4h20l2 3v13l-4 5-9 3v3l11 2 4 2 5 8 1 9-4 4-12 5-10 4-12 4-16 8-7 3-4-1-12-17-14-27-4-11-7 4-9 8-12 9-13 10-11 10-8 7-20 18-10 6-6 1-10-5-9-9-6-9-1-7 6-9 4-5 8-7 7-7 16-14 1-4-63-5-9-3-4-5-1-3v-16l4-12 7-8h16l38 4 12 2h7l10-7 12-11 8-8 8-7 16-15 7-6h2l1-4 2-29 3-23 6-28 11-36-1-5-13-29-10-27-9-29-8-32-5-28-4-29-1-12v-52l3-25 5-24 6-20 7-13 7-6 6-2h20l24 3 36 8 32 10 28 11 35 16 20 10 21 12 20 12 11 8 4 1 16-8 19-8 27-9 19-5 39-7 19-2h45l28 3 28 5 20 6 18 6 25 11 6 2 36-22 16-9 17-9 31-14 31-12 33-11 29-7 25-4z" fill="#323743"/>
<path transform="translate(969,654)" d="m0 0h47l26 2 25 3 35 6 28 7 24 8 21 8 21 10 14 7 10 6 21 13 15 11 11 9 10 9 8 7 1 3h2v2h2l7 9 12 16 10 16 8 14 10 24 8 30 3 21v10l-1 13-2 1h-14v2h9l22 3 25 7 9 3h7l2 10-1 2-4 2-12 27-9 17-8 14-1 5 14 7 5 2 5 4 4 5v7l-4 6h-8l-9-2-14-9-13-7-5 1v-2l-5-2-14-7-10-4-10-5-10-3-4 1-2 4-11 11-13 10-10 6-19 10-24 9-18 6-25 6-18 4-24 4-33 4-23 2-42 2-34 1h-48l-35-1-30-2-29-3-39-7-27-6-20-6-23-8-15-7-11-6-14-9-10-8-10-9-2-3-9 2-21 9-20 11-7 1-25 12-16 8h-5l-5-9 2-5 10-8 15-9 12-7 23-11 16-5 13-6 5-2 1-2-1-9-4-6v-2l-12-3-3-1v-3l10-5 2-3v-13l-1-2h-20l-27 5-24 2-5-2-1-5 4-3 25-8 22-4 7-1-7-1 2-33 4-23 7-23 8-18 9-16 10-14 8-11 11-12 14-15 9-9 14-11 11-8 12-8 11-7 23-12 29-14 33-12 22-6 18-5 26-5 26-4z" fill="#040204"/>
<path transform="translate(1274,798)" d="m0 0 4 1 5 5 13 21 8 15 8 20 7 28 3 25 3 4 6 2v2h9l22 3 25 7 9 3h7l2 10-1 2-4 2-12 27-9 17-8 14-1 5 14 7 5 2 5 4 4 5v7l-4 6h-8l-9-2-14-9-13-7-5 1v-2l-5-2-14-7-10-4-10-5-10-3-4 1-2 4-11 11-13 10-10 6-19 10-24 9-18 6-25 6-18 4-24 4-33 4-23 2-42 2-34 1h-48l-35-1-30-2-29-3-39-7-27-6-20-6-23-8-15-7-11-6-14-9-10-8-10-9-2-3-9 2-21 9-20 11-7 1-25 12-16 8h-5l-5-9 2-5 10-8 15-9 12-7 23-11 16-5 13-6 5-2 1-2-1-9-4-6v-2l-12-3-3-1v-3l10-5 2-3v-13l-1-2h-20l-27 5-24 2-5-2-1-5 4-3 25-8 22-4 9-2 4-2 12-3 2-11 2-16 4-17 5-16 6-15 11-19 14-21 4 1 3 19 6 21 4 9 8 14 1 3h2l7 8 10 8 10 7 17 8 15 5 21 3 14 1h14l22-2 12-1-1 5-6 19-1 5v20l3 14 6 12 9 10 10 7 14 6 16 3h13l17-3 13-5 10-6 11-9 4-4 4 2 7 8 9 6 10 5 12 4 6 1h23l16-4 16-8 9-9 8-13 3-8 1-7v-16l-4-17-7-14-1-4h10l17 2h30l13-2 28-8 12-5 12-7 14-12 7-7 12-19 6-15 4-20 2-14z" fill="#323743"/>
<path transform="translate(1366,398)" d="m0 0h8l9 2 6 4 6 8 5 12 5 19 4 25 2 26v28l-2 29-4 33-5 28-7 31-9 32-7 20-7 17 1 7 11 23 12 36 5 17 5 27 2 18v57l-4 33-2 2-12-2-14-4-2-2v-9l2-10 1-12v-36l-2-24-5-28-4-15-9-27-8-18-11-19-10-17-10-15-5-5-11-13-12-13v-2l-3-1-7-8-5-4-5-5-14-12-9-6v-2l-4-2-11-7-11-8-18-10-13-10-1-1v-5l12-16 10-12h2l2-4 7-8 8-7 10-9 13-10 4-4 8-6 18-12 11-7 21-12 15-7 12-5 6-2h8l4 7 3 9 2 12v40l-3 23-5 20-3 1-1-9-1-39-3-25-3-9-9 1-19 9-18 11-17 12-13 11h-2l-1 3-10 8-13 12-9 9-8 7-1 5 4 4 14 10 8 6 13 10 11 8 16 15 8 8 4 5v2h2l9 11 12 16 8 11 3 5 5 2 1-2h2l3-10 12-42 3-11 5-25 7-37 4-37 1-19v-28l-3-32-3-12-3-6v-2l-22 2-26 5-34 9-27 9-29 12-30 14-22 12-21 12-16 10-15 10-14 10-8 6-3 4-5 1-6-4-1-7 5-9 2-3h2l2-4 3-3v-4l-24-10-22-7-33-7-15-2-16-1h-19l-27 2-31 6-31 9-26 10-8 4-1 3 11 15 1 9-5 5h-6l-11-9-44-29-19-11-25-13-28-13-21-9-23-9-22-7-28-7-20-4-19-2h-10l-3 1-3 11-3 14-2 18-1 27 2 33 3 24 5 29 7 33 8 29 12 35 7 14 3 1 4-4 8-13 8-11 21-28 7-8h2l2-4 8-8 8-7 15-13 10-8 13-10 5-4-1-6-5-5-12-11-2-1v-2l-4-2-12-11-10-9-16-13-11-7-10-7-21-12-10-4h-7l-4 13-2 16-2 54h-3l-2-4-4-25-2-30v-21l2-20 5-10 3-2h9l18 6 16 8 14 8 12 8 11 7 16 12 15 11v2h2v2l5 2 5 4 4 5 8 7 12 12 7 8 1 3h2l7 9 5 7-1 6-10 7-18 11-11 8-8 6-11 9-10 9-8 7-2 3h-2l-2 4-8 9h-2l-2 4-2 3h-2l-2 4-11 15-11 16-6 11-5 9-7 15-8 20-6 21-5 21-3 22-1 11-1 28 2 36 3 22v6l-2 2-18 5-3 1v8l2 2h25l3 5 4 12 3 6 4 5v2l4 2 6 4v2l4-2 1-14-2-12v-12l4-4 20-2 2 3v13l-4 5-9 3v3l11 2 4 2 5 8 1 9-4 4-12 5-10 4-12 4-16 8-7 3-4-1-12-17-14-27-4-11-7 4-9 8-12 9-13 10-11 10-8 7-20 18-10 6-6 1-10-5-9-9-6-9-1-7 6-9 4-5 8-7 7-7 16-14 1-4-63-5-9-3-4-5-1-3v-16l4-12 7-8h16l38 4 12 2h7l10-7 12-11 8-8 8-7 16-15 7-6h2l1-4 2-29 3-23 6-28 11-36-1-5-13-29-10-27-9-29-8-32-5-28-4-29-1-12v-52l3-25 5-24 6-20 7-13 7-6 6-2h20l24 3 36 8 32 10 28 11 35 16 20 10 21 12 20 12 11 8 4 1 16-8 19-8 27-9 19-5 39-7 19-2h45l28 3 28 5 20 6 18 6 25 11 6 2 36-22 16-9 17-9 31-14 31-12 33-11 29-7 25-4z" fill="#030203"/>
<path transform="translate(1240,1084)" d="m0 0h7l2 2 1 4v11l-3 6-7 9-7 7-6 5h-2v2l-26 20-11 7-18 12-21 12-19 10-29 12-28 10-21 6-25 5-24 3-27 1-26-2-29-5-36-10-28-10-21-9-16-8-21-11-10-7-16-10v-2l-5-2-17-13-7-5-5-5-3-2v-2l-4-2-5-5v-2h-2l-6-8-1-2v-7l3-9 4-4h7l26 7 29 6 31 4 19 2 33 2h192l47-2 38-3 26-3 23-5 27-5z" fill="#FABD13"/>
<path transform="translate(651,1274)" d="m0 0h41l36 3 35 5 17 4 29 8 2 2-1 5-8 18-6 18-3 13-3 25-2 32-3 7-5 3-20 4-24 3-27 1-18-1-24-4-20-5-20-8-17-9-10-8-8-8-8-11-5-11-3-12-1-10v-10l2-15 5-15 4-6 7-5 15-6 14-3z" fill="#323744"/>
<path transform="translate(1295,1271)" d="m0 0h18l28 2 30 5 13 4 8 5 4 5 5 12 3 12 1 7v22l-5 19-7 11-11 12-6 5h-2v2l-17 10-18 8-17 5-20 4-20 2h-15l-20-1-29-4-15-4-5-3-1-1-3-40-4-28-6-20-11-23v-6l10-4 15-4 23-5 28-5 24-3z" fill="#323744"/>
<path transform="translate(965,686)" d="m0 0h55l38 4 28 5 27 7 27 9 9 5-5 5-15 10-22 12-16 8-19 7-28 8-17 4-7 4-3 5v13l5 12 6 7 8 5 1 3v9l4 22 4 21-10-1-19-3-10-1h-22l-19 2-16 3h-6l1-11 5-23 2-22 8-4 6-7 5-10 1-5v-9l-4-6-4-3-33-8-33-11-25-12-22-13-9-7-2-3 3-3 25-9 29-8 28-6 29-4z" fill="#323744"/>
<path transform="translate(766,762)" d="m0 0h9l11 4 16 8 15 6 22 10 15 6 3 3 29 12 24 11 12 6 2 2v9l-6 12-9 10-11 9-18 10-17 6-20 4h-16l-17-3-16-5-12-6-13-9-12-12-8-14-6-15-2-10v-29l3-10 8-7 10-6z" fill="#FABD13"/>
<path transform="translate(1216,761)" d="m0 0 8 2 9 7 5 6 3 8 1 7v22l-3 15-5 12-6 10-12 13-11 9-8 5-15 6-20 4-9 1h-17l-16-3-16-6-14-7-9-7-9-9-7-12-3-11 1-4 16-8 25-12 14-7 9-4 22-10 18-8 20-9 18-8z" fill="#FABD13"/>
<path transform="translate(1503,903)" d="m0 0 7 2 11 10 4 2v2l4 2 11 9 1 2v7l-6 7-3 5-8 12-9 14-10 14-8 12-14 19-11 14-8 10-13 16-5 6h-2l-2 5h-2l-2 4-2 3h-2l-2 4-13 13-7 8-7 7h-2l-2 4-8 8-8 7-3 1v2l-11 9-3 1-1 3-9 7-12 10h-7l-6-4-17-14-3-3 1-4 4-5 11-9 15-14 3-3h2l2-4 5-4 5-5 5-6 7-6 5-6 5-5h2l2-4 8-10 10-13 3-4h2l2-5 5-7h2l2-5 11-14 14-19 9-13 10-15 14-22 8-13 13-21z" fill="#323744"/>
<path transform="translate(982,1386)" d="m0 0h42l4 9 6 18 8 15 8 7 8 5 11 5 27 7 13 5 4 3-1 5-16 8-22 8-26 7-18 3-16 2h-39l-24-3-25-6-17-5-26-10-7-5 1-4 11-6 25-7 16-7 8-6 2-3h2l10-20 5-12 4-10 6-2z" fill="#323744"/>
<path transform="translate(608,492)" d="m0 0h7l12 5 19 11 10 7 12 8 16 13 17 16 8 6v2l4 2 12 11v2l4 2 1 6-13 11-15 11-11 10-8 7-13 12-2 3h-2l-2 4-9 10-8 11-9 12-7 10-4-2-3-3-7-18-6-23-5-18-5-26-1-7v-45l1-20 3-21z" fill="#A53F53"/>
<path transform="translate(1338,488)" d="m0 0h6l3 5 3 19 1 11 1 39v24l-4 24-6 26-6 20-5 13-3 4-4-1-12-16-8-9v-2h-2l-8-10-13-13-11-9-13-10-11-8-12-9-9-6-2-3 1-5 7-7 8-7 11-11 11-9 11-10 17-13 17-11 18-10 11-5z" fill="#A53F53"/>
<path transform="translate(1130,1222)" d="m0 0h1l7 34v8l-9-1h-18l-10 6-6 9-1 3-6-1-9-1h-13l-9 2-10 6-9 10-8 12-2 1-17 1h-52l-6-2-4-5-4-7-9-10-10-5-9-2h-12l-9 2-5-1-6-8-7-6-8-3h-18l-13 3 1-7 5-19 3-12 11 3 33 10 17 4 24 4 24 3 18 1h12l36-3 30-5 29-7 35-12z" fill="#323744"/>
<path transform="translate(1259,1142)" d="m0 0 8 1 11 9 3 2v2l4 2 13 11 10 8 13 12 12 12v2h2v2h2l18 22 5 7 1 5-7-1-15-6-23-5-9-1h-28l-16 2-17 5-14 5-28 14-12 7h-5l-1-4 2-17 6-22 9-21 8-12 10-11 6-5h2v-2l14-11z" fill="#323744"/>
<path transform="translate(705,1146)" d="m0 0 7 1 17 13 14 10 10 9 9 7 12 18 8 16 6 18 3 14-1 5-1 1h-5l-32-16-12-5-13-4-15-3-17-2h-20l-14 1-22 5-14 6-9 1-1-2 3-7 7-10 12-15h2l2-4 8-8 7-8 9-9 8-7 10-9 13-10z" fill="#323744"/>
<path transform="translate(1120,1287)" d="m0 0h8l10 3 8 7 7 8 8 19 4 15 3 19v58l-2 9-6 9-8 6-9 2h-7l-8-3-7-7-5-9-5-14-4-17-3-24-1-11v-30l3-22 4-10 6-7z" fill="#FDFCF7"/>
<path transform="translate(854,1289)" d="m0 0h14l5 5 5 10 3 13 2 21-1 25-4 27-5 22-7 17-6 8-6 4-8 2-10-1-8-4-7-8-3-9-1-6v-56l4-26 6-18 6-11 8-9 10-5z" fill="#FDFCF9"/>
<path transform="translate(1053,889)" d="m0 0 9 1 15 6 15 8 7 8 5 11v3l-10 3v3l11 2 3 5 1 3v7l-1 1-10 1h-9l2 4 13 4 1 4-5 9-9 10-10 6-15 5-6 1h-18l-12-3-12-6-10-9-5-7-4-13 1-5 6-7 13-9 14-9 9-7 6-9 3-9 1-10z" fill="#FDFDFC"/>
<path transform="translate(929,890)" d="m0 0 4 1 2 14 6 12 8 8 20 12 16 12 4 4-1 8-6 12-9 10-10 6-15 5-6 1h-12l-15-3-12-5-8-6-8-8-5-9 1-5 15-3v-3l-18-3-1-1v-10l4-4 10-2 1-3-11-4-1-4 5-10 5-5 13-8 11-5z" fill="#FDFDFC"/>
<path transform="translate(1388,1424)" d="m0 0h7l21 7 17 7 12 6 7 3 1 2v6l-8 11-8 12-11 14-6 1-36-10-37-7-5-5-6-11-2-7 4-4 23-10 17-9z" fill="#323744"/>
<path transform="translate(1069,1304)" d="m0 0h18l3 3-1 14v32l4 21 9 27 4 11-1 6-11 6-4 1h-11l-9-4-8-8-9-17-7-21-3-16v-14l3-17 5-12 6-7 9-4z" fill="#FDFBF5"/>
<path transform="translate(897,1305)" d="m0 0h21l7 3 7 6 6 12 3 12v28l-5 18-11 26-7 10-9 4-5 1h-9l-9-4-6-5 1-6 10-32 4-16 2-15v-21l-2-13v-6z" fill="#FDFCF8"/>
<path transform="translate(591,1427)" d="m0 0 9 3 21 11 20 8 8 4 2 2-1 7-6 12-4 4-9 2-21 3-21 5-10 3-9 3h-6l-6-5-12-16-10-13-2-4 1-5 12-7 17-7 16-6z" fill="#323744"/>
<path transform="translate(1338,488)" d="m0 0h6l3 5 3 19 1 11 1 39v24l-4 24-6 26-6 20-5 13-3 4-4-1-12-16-8-9v-2h-2l-8-10-13-13-11-9-13-10-11-8-12-9-9-6-2-3 1-5 7-7 8-7 11-11 11-9 11-10 17-13 17-11 18-10 11-5zm3 3-10 3-16 8-16 10-11 8-10 8-1 7 1 3 2 10 3 5 4 19 1 8h1l5 35v9l3 9 10 13 7 8h2l2 5h2l2 5 3 4 4-2 4-8 7-24 4-19 3-18 1-11v-61l-2-22-3-12z" fill="#7B3141"/>
<path transform="translate(608,492)" d="m0 0h7l12 5 19 11 10 7 12 8 16 13 17 16 8 6v2l4 2 12 11v2l4 2 1 6-13 11-15 11-11 10-8 7-13 12-2 3h-2l-2 4-9 10-8 11-9 12-7 10-4-2-3-3-7-18-6-23-5-18-5-26-1-7v-45l1-20 3-21zm2 3-4 10-2 15-1 16v43l3 26 6 31 9 27 5 12 5 2 5-5 8-10 5-8 8-11 3-6 1-16 1-15 3-15 8-28 2-3 1-9h2l3-5-1-6-3-6-10-9-15-10-20-13-15-7z" fill="#7B3141"/>
<path transform="translate(1158,952)" d="m0 0 14 1 28 4 35 6 17 4 50 15 18 8 29 12 16 6 4 1 1-2v4l14 7 5 2 5 4 4 5v7l-4 6h-8l-9-2-14-9-13-7-7-3-15-8-24-11-31-11-18-7-46-14-32-8-18-4-3-2v-3z" fill="#FDF8E8"/>
<path transform="translate(815,955)" d="m0 0h9v4l-18 5-17 4-35 10-26 9-53 19-20 9-20 10-7 4-29 14-14 7h-5l-5-9 2-5 10-8 15-9 8-4 13-5 15-7 29-11 20-8 23-8 27-7 18-5z" fill="#FDF9EC"/>
<path transform="translate(1322,937)" d="m0 0 16 1 5 2 3 5-3 24 2 3h6l5-5 4-8 5-12 1-2 8-1 20 3 4 3-1 5-11 24-7 13-8 14h-8l-23-9-13-6-13-5-5-6 4-11 6-8v-9l-1-7 3-7z" fill="#030203"/>
<path transform="translate(1200,1102)" d="m0 0h3l-2 4-7 7-15 10-12 7-16 8-19 8-27 8-24 5-31 4-13 1-26 1h-23l-5-2v-2l9-2 37-6 30-7 32-10 19-8 28-10 28-7 23-6z" fill="#0E0608"/>
<path transform="translate(815,725)" d="m0 0 5 1 15 10 19 11 12 6 42 17 24 7 24 5 1 1-1 9-3 5h-16l-15-3-29-9-20-7-26-11-29-14-24-14-2-1v-2l12-7z" fill="#FDFCF8"/>
<path transform="translate(1167,724)" d="m0 0 7 1 17 7 4 4-19 12-9 4-16 8-29 13-39 15-22 6-12 2h-14l-5-10v-4l33-8 24-8 28-12 26-13 22-14z" fill="#FDFCF7"/>
<path transform="translate(1238,914)" d="m0 0h30l39 2 24 4 24 3 15 3 26 8h7l2 10-1 2-5 2-4-2-47-7-14-3-35-4-28-3-63-3-42-1v-4l16-3 33-3z" fill="#FDF6E1"/>
<path transform="translate(701,916)" d="m0 0h64l48 5 8 2v5h-48l-58 2-35 4-11 2-20 2-33 6-24 2-5-2-1-5 4-3 25-8 22-4 26-4 3-1z" fill="#FDF7E6"/>
<path transform="translate(983,890)" d="m0 0h27l18 4 5 4 2 3-1 6-5 4-17 10-12 11-2 3-5 1-8-7-10-8-10-6-14-7 1-9 2-3 9-3z" fill="#A23E51"/>
<path transform="translate(1318,1240)" d="m0 0h20l16 4 13 5 10 9 5 8v4l-11-1-32-6-23-3-28-1-45 1v-3l19-7 31-7z" fill="#FDF7E6"/>
<path transform="translate(643,1243)" d="m0 0h28l30 5 30 8 5 3-1 2h-53l-24 2-33 5-20 4h-7l1-6 6-8 9-6 10-5 11-3z" fill="#FDF8EA"/>
<path transform="translate(851,800)" d="m0 0h5l6 9 4 15 1 8v13l-3 13-7 14-4 4h-5l-5-6-4-9-2-10v-20l3-14 6-12z" fill="#0A0406"/>
<path transform="translate(1134,798)" d="m0 0 4 1 6 11 4 16v26l-3 10-5 9-4 4h-6l-4-4-5-15-1-4v-27l4-16 5-8z" fill="#090406"/>
<path transform="translate(1174,936)" d="m0 0h41l36 3 41 6 21 5 4 2v7l-2 3h-12l-37-7-10-2-42-6-30-3-15-1-6-2 2-3z" fill="#FDF4DB"/>
<path transform="translate(777,938)" d="m0 0h38l7 1 1 2-1 2-34 3-44 7-33 6-25 6-9 2h-9l-6-4 1-4 5-5 4-2 19-3 29-5 42-5z" fill="#FDF5DF"/>
<path transform="translate(964,1334)" d="m0 0h59l-1 22-1 5h-57l-1-1-1-25z" fill="#7B3141"/>
<path transform="translate(793,1117)" d="m0 0 11 4 44 22 23 12 12 7v2h-9l-20-6-16-6-17-9-12-9-13-11-3-4z" fill="#190A0E"/>
<path transform="translate(555,906)" d="m0 0 6 1 8 6-1 7-8 7-12 11-5 5h-5l-8-11 1-5 4-2v-2l9-7 5-5z" fill="#7C3141"/>
<path transform="translate(1026,1022)" d="m0 0 3 1-3 7-9 7-12 5-4 1h-13l-11-4-9-6-6-7v-3h8l11 5 5 1h16l16-4z" fill="#030203"/>
<path transform="translate(644,1241)" d="m0 0h25l26 4 21 5 22 7 3 3-1 4-23-1h-38l-32 3-8 2-27 4-11 2h-5l-1-4 6-11 13-10 13-5zm-1 2-16 3-10 4-11 7-6 7-2 4v4h7l31-6 30-4 16-1h53v-3l-11-4-28-7-25-4z" fill="#323744"/>
<path transform="translate(1313,1239)" d="m0 0h30l18 5 8 5 10 9 5 9v5l-21-1-12-3-14-3-9-2-20-2h-69v-3l10-5 15-5 26-6 11-2zm5 1-25 3-31 7-19 7v3l51-1 22 1 30 4 30 6h6l-1-6-7-9-9-7-17-6-10-2z" fill="#323744"/>
<path transform="translate(1111,1292)" d="m0 0v3l-4 10-3 22v30l3 28 4 20 5 16 4 8 8 9 8 3h7l11-3 7-6 5-10 1-6v-58l-4-24 1-4 4 16 2 20v50l-2 10-5 8-8 6-6 3-13 1-8-3-8-7-5-9-5-13-4-18-2-10-2-22v-40l2-14 2-9z" fill="#373643"/>
<path transform="translate(761,495)" d="m0 0 12 3 8 4 6 4v2l4 1v2h3l5 5 7 3v2l4 2 5 2v2h2v2h3l1 4-5-1-22-12-16-11-14-9-3-3z" fill="#FABD13"/>
<path transform="translate(821,1329)" d="m0 0 1 4-4 26v56l3 12 4 7 8 6 8 2 13-1-2 2-3 1h-9l-8-2-8-6-5-6-3-10-1-8v-40l2-23 3-17z" fill="#333643"/>
<path transform="translate(553,915)" d="m0 0 4 1 1 5h-2v2h-2l-1 3-6 5-5 5-4 1-1-5 2-5 8-7 4-4z" fill="#A53F53"/>
<path transform="translate(1168,1416)" d="m0 0h1v7l-5 10-7 6-8 4-13 1-8-3-8-7-4-6v-2l3 1 6 8 5 4 6 2h7l11-3 7-6 5-10z" fill="#323643"/>
<path transform="translate(1103,1403)" d="m0 0 3 4 2 8-3 5-6 4-7 3h-14l-6-3-10-9 1-2 7 7 9 4h11l8-3 6-3 1-6z" fill="#323744"/>
<path transform="translate(1027,894)" d="m0 0 6 4 2 3-1 6-7 2-6-7 3-4 4-1z" fill="#7B3141"/>
<path transform="translate(882,1348)" d="m0 0h1v16l-4 32-6 20-2 2 2-9 6-30 2-16z" fill="#353643"/>
<path transform="translate(1392,1019)" d="m0 0 4 5 4 6v6l-2 5h-2v2l-2 1-14-1-5-1 1-2h7l3 1h8l3-5v-7l-4-5-3-3z" fill="#343843"/>
<path transform="translate(1213,759)" d="m0 0 9 1 8 6h-3l-5-3-6-1-14 3-10 5-3-1 17-8z" fill="#8E3749"/>
<path transform="translate(1235,1084)" d="m0 0h5l-4 2-13 4-20 4h-7l2-2 31-6z" fill="#843445"/>
<path transform="translate(1240,1083)" d="m0 0h9l3 7v12l-4 6-5 5 2-5 3-4 1-3v-11l-2-5-7-1z" fill="#833546"/>
<path transform="translate(818,1425)" d="m0 0h2l4 8 7 6 10 3 13-1-2 2-3 1h-9l-8-2-8-6-5-6z" fill="#323744"/>
<path transform="translate(731,1257)" d="m0 0 5 2-1 2h-17l-31-1v-1h35l9 1z" fill="#FBBE13"/>
<path transform="translate(870,1418)" d="m0 0 1 4-7 13-7 6-3-1 7-5 6-10z" fill="#333643"/>
<path transform="translate(878,1393)" d="m0 0 1 3-6 20-2 2 2-9 3-14z" fill="#323744"/>
<path transform="translate(1213,759)" d="m0 0 9 1 8 6h-3l-5-3-12-2z" fill="#843444"/>
<path transform="translate(1153,516)" d="m0 0h4l-1 3-9 5-3-1 3-3 3-2h3z" fill="#FBBE13"/>
</svg>
